<svg width="200" height="200" viewBox="0 0 200 200" fill="none" xmlns="http://www.w3.org/2000/svg">
<rect width="200" height="200" fill="#E5E5E5"/>
<rect width="200" height="200" fill="white"/>
<path d="M71.16 67.968H93.192C100.672 67.968 107.2 69.532 112.776 72.66C118.352 75.72 122.636 80.004 125.628 85.512C128.62 91.02 130.116 97.344 130.116 104.484C130.116 111.624 128.62 117.948 125.628 123.456C122.636 128.964 118.352 133.282 112.776 136.41C107.2 139.47 100.672 141 93.192 141H71.16V67.968ZM93.192 132.738C101.828 132.738 108.662 130.256 113.694 125.292C118.794 120.328 121.344 113.392 121.344 104.484C121.344 95.576 118.794 88.64 113.694 83.676C108.662 78.712 101.828 76.23 93.192 76.23H79.728V132.738H93.192Z" fill="black"/>
</svg>
